<svg viewBox="0 0 3470 401" fill="none" xmlns="http://www.w3.org/2000/svg">
<path d="M397.883 163.962C399.317 159.778 400 155.495 400 151.245C400 138.412 393.683 126.012 382.417 118.212C346.55 93.3449 351.283 99.5949 337.75 59.1449C332.1 42.2449 315.733 30.8115 297.267 30.8782C253.033 31.0115 260.717 33.4282 225.017 8.31155C217.583 3.07821 208.783 0.461548 200 0.461548C191.217 0.461548 182.417 3.07821 174.967 8.31155C139.067 33.5615 146.85 31.0115 102.717 30.8782C84.2667 30.8282 67.8833 42.2615 62.2333 59.1449C48.7 99.6949 53.35 93.3949 17.5667 118.212C6.31667 126.028 0 138.412 0 151.245C0 155.495 0.683333 159.778 2.11667 163.962C15.95 204.428 15.9 196.678 2.11667 236.962C0.683333 241.145 0 245.445 0 249.678C0 262.512 6.31667 274.912 17.5833 282.712C53.3667 307.528 48.7333 301.278 62.25 341.778C67.9 358.678 84.2667 370.112 102.733 370.045C146.967 369.895 139.283 367.512 174.983 392.612C182.417 397.845 191.217 400.462 200 400.462C208.783 400.462 217.583 397.845 225.033 392.612C260.717 367.512 253.05 369.912 297.283 370.045C315.733 370.095 332.117 358.662 337.767 341.778C351.3 301.312 346.567 307.562 382.433 282.712C393.683 274.912 400 262.512 400 249.678C400 245.445 399.317 241.145 397.883 236.962C384.033 196.512 384.1 204.245 397.883 163.962ZM271.8 197.028C278.767 197.962 282.3 202.495 282.3 207.195C282.3 212.578 277.683 218.195 268.233 218.945C262.433 219.395 261 224.145 267.967 225.712C273.817 227.045 277.117 231.145 277.117 235.562C277.117 240.795 272.467 246.462 261.9 248.412C255.517 249.578 254.883 255.828 261.633 256.362C267.367 256.795 269.617 258.795 269.617 261.562C269.617 269.328 255.85 283.778 229.183 283.778C187.5 283.795 172.4 258.795 116.667 258.795V176.062C146.1 171.545 174.733 162.445 189.067 112.695C193.05 98.8449 195.567 83.7949 208.85 83.7949C228.65 83.7949 230.467 126.495 222.917 156.978C233.85 162.712 254.167 164.778 264.4 164.345C279.167 163.745 283.333 171.162 283.333 176.762C283.333 185.178 276.4 188.012 272.05 189.345C266.983 190.912 264.65 196.078 271.8 197.028Z" fill="#000"/>
<path d="M551.284 346V55.0909H666.057C688.121 55.0909 706.919 59.3049 722.449 67.733C737.979 76.0663 749.816 87.6667 757.96 102.534C766.199 117.307 770.318 134.352 770.318 153.67C770.318 172.989 766.152 190.034 757.818 204.807C749.485 219.58 737.411 231.085 721.597 239.324C705.877 247.562 686.843 251.682 664.494 251.682H591.341V202.392H654.551C666.388 202.392 676.142 200.356 683.812 196.284C691.578 192.117 697.354 186.388 701.142 179.097C705.025 171.71 706.966 163.235 706.966 153.67C706.966 144.011 705.025 135.583 701.142 128.386C697.354 121.095 691.578 115.46 683.812 111.483C676.047 107.411 666.199 105.375 654.267 105.375H612.79V346H551.284ZM905.048 350.261C882.605 350.261 863.287 345.716 847.094 336.625C830.995 327.439 818.59 314.466 809.878 297.705C801.166 280.848 796.81 260.915 796.81 237.903C796.81 215.46 801.166 195.763 809.878 178.812C818.59 161.862 830.853 148.652 846.668 139.182C862.577 129.712 881.232 124.977 902.634 124.977C917.027 124.977 930.427 127.297 942.832 131.938C955.332 136.483 966.223 143.348 975.503 152.534C984.878 161.72 992.17 173.273 997.378 187.193C1002.59 201.019 1005.19 217.212 1005.19 235.773V252.392H820.957V214.892H948.23C948.23 206.18 946.336 198.462 942.548 191.739C938.76 185.015 933.505 179.759 926.781 175.972C920.152 172.089 912.435 170.148 903.628 170.148C894.442 170.148 886.298 172.278 879.196 176.54C872.188 180.706 866.696 186.341 862.719 193.443C858.741 200.451 856.705 208.263 856.611 216.881V252.534C856.611 263.33 858.599 272.657 862.577 280.517C866.649 288.377 872.378 294.438 879.764 298.699C887.151 302.96 895.91 305.091 906.043 305.091C912.766 305.091 918.921 304.144 924.509 302.25C930.096 300.356 934.878 297.515 938.855 293.727C942.832 289.939 945.863 285.299 947.946 279.807L1003.91 283.5C1001.07 296.947 995.247 308.689 986.44 318.727C977.728 328.67 966.459 336.436 952.634 342.023C938.902 347.515 923.041 350.261 905.048 350.261ZM1044.68 346V127.818H1103.34V165.886H1105.62C1109.59 152.345 1116.27 142.117 1125.64 135.205C1135.02 128.197 1145.82 124.693 1158.03 124.693C1161.06 124.693 1164.33 124.883 1167.83 125.261C1171.34 125.64 1174.41 126.161 1177.07 126.824V180.517C1174.22 179.665 1170.29 178.907 1165.28 178.244C1160.26 177.581 1155.66 177.25 1151.5 177.25C1142.6 177.25 1134.64 179.191 1127.63 183.074C1120.72 186.862 1115.23 192.165 1111.16 198.983C1107.18 205.801 1105.19 213.661 1105.19 222.562V346H1044.68ZM1336.62 127.818V173.273H1201.96V127.818H1336.62ZM1232.78 346V112.051C1232.78 96.2367 1235.86 83.1212 1242.02 72.7045C1248.27 62.2879 1256.79 54.4754 1267.58 49.267C1278.38 44.0587 1290.64 41.4545 1304.37 41.4545C1313.65 41.4545 1322.13 42.1648 1329.8 43.5852C1337.56 45.0057 1343.34 46.2841 1347.13 47.4205L1336.33 92.875C1333.97 92.1174 1331.03 91.4072 1327.53 90.7443C1324.12 90.0814 1320.61 89.75 1317.02 89.75C1308.11 89.75 1301.91 91.8333 1298.41 96C1294.9 100.072 1293.15 105.801 1293.15 113.188V346H1232.78ZM1465.2 350.261C1442.76 350.261 1423.44 345.716 1407.25 336.625C1391.15 327.439 1378.75 314.466 1370.03 297.705C1361.32 280.848 1356.97 260.915 1356.97 237.903C1356.97 215.46 1361.32 195.763 1370.03 178.812C1378.75 161.862 1391.01 148.652 1406.82 139.182C1422.73 129.712 1441.39 124.977 1462.79 124.977C1477.18 124.977 1490.58 127.297 1502.99 131.938C1515.49 136.483 1526.38 143.348 1535.66 152.534C1545.03 161.72 1552.33 173.273 1557.53 187.193C1562.74 201.019 1565.35 217.212 1565.35 235.773V252.392H1381.11V214.892H1508.39C1508.39 206.18 1506.49 198.462 1502.7 191.739C1498.92 185.015 1493.66 179.759 1486.94 175.972C1480.31 172.089 1472.59 170.148 1463.78 170.148C1454.6 170.148 1446.45 172.278 1439.35 176.54C1432.34 180.706 1426.85 186.341 1422.88 193.443C1418.9 200.451 1416.86 208.263 1416.77 216.881V252.534C1416.77 263.33 1418.76 272.657 1422.73 280.517C1426.8 288.377 1432.53 294.438 1439.92 298.699C1447.31 302.96 1456.07 305.091 1466.2 305.091C1472.92 305.091 1479.08 304.144 1484.66 302.25C1490.25 300.356 1495.03 297.515 1499.01 293.727C1502.99 289.939 1506.02 285.299 1508.1 279.807L1564.07 283.5C1561.23 296.947 1555.4 308.689 1546.6 318.727C1537.88 328.67 1526.62 336.436 1512.79 342.023C1499.06 347.515 1483.2 350.261 1465.2 350.261ZM1703.41 350.261C1681.07 350.261 1661.84 345.527 1645.74 336.057C1629.74 326.492 1617.43 313.235 1608.81 296.284C1600.29 279.333 1596.03 259.826 1596.03 237.761C1596.03 215.413 1600.34 195.811 1608.95 178.955C1617.67 162.004 1630.02 148.794 1646.03 139.324C1662.03 129.759 1681.07 124.977 1703.13 124.977C1722.16 124.977 1738.83 128.434 1753.13 135.347C1767.43 142.259 1778.75 151.966 1787.08 164.466C1795.41 176.966 1800.01 191.644 1800.86 208.5H1743.76C1742.15 197.61 1737.88 188.85 1730.97 182.222C1724.15 175.498 1715.2 172.136 1704.12 172.136C1694.75 172.136 1686.56 174.693 1679.55 179.807C1672.64 184.826 1667.24 192.165 1663.36 201.824C1659.48 211.483 1657.53 223.178 1657.53 236.909C1657.53 250.83 1659.43 262.667 1663.22 272.42C1667.1 282.174 1672.54 289.608 1679.55 294.722C1686.56 299.835 1694.75 302.392 1704.12 302.392C1711.04 302.392 1717.24 300.972 1722.73 298.131C1728.32 295.29 1732.91 291.17 1736.51 285.773C1740.2 280.28 1742.62 273.699 1743.76 266.028H1800.86C1799.91 282.695 1795.37 297.373 1787.22 310.062C1779.17 322.657 1768.05 332.506 1753.84 339.608C1739.64 346.71 1722.83 350.261 1703.41 350.261ZM1955.65 127.818V173.273H1824.26V127.818H1955.65ZM1854.09 75.5455H1914.6V278.955C1914.6 284.542 1915.45 288.898 1917.16 292.023C1918.86 295.053 1921.23 297.184 1924.26 298.415C1927.38 299.646 1930.98 300.261 1935.06 300.261C1937.9 300.261 1940.74 300.025 1943.58 299.551C1946.42 298.983 1948.6 298.557 1950.11 298.273L1959.63 343.301C1956.6 344.248 1952.34 345.337 1946.85 346.568C1941.35 347.894 1934.68 348.699 1926.82 348.983C1912.23 349.551 1899.45 347.61 1888.46 343.159C1877.57 338.708 1869.1 331.795 1863.04 322.42C1856.98 313.045 1853.99 301.208 1854.09 286.909V75.5455ZM2252.88 156.938H2190.67C2189.53 148.888 2187.21 141.739 2183.71 135.489C2180.2 129.144 2175.7 123.746 2170.21 119.295C2164.72 114.845 2158.37 111.436 2151.18 109.068C2144.08 106.701 2136.36 105.517 2128.02 105.517C2112.97 105.517 2099.85 109.258 2088.68 116.739C2077.5 124.125 2068.84 134.92 2062.68 149.125C2056.53 163.235 2053.45 180.375 2053.45 200.545C2053.45 221.284 2056.53 238.708 2062.68 252.818C2068.93 266.928 2077.65 277.581 2088.82 284.778C2099.99 291.975 2112.92 295.574 2127.6 295.574C2135.84 295.574 2143.46 294.485 2150.47 292.307C2157.57 290.129 2163.87 286.956 2169.36 282.79C2174.85 278.528 2179.4 273.367 2183 267.307C2186.69 261.246 2189.25 254.333 2190.67 246.568L2252.88 246.852C2251.27 260.205 2247.25 273.083 2240.81 285.489C2234.46 297.799 2225.89 308.831 2215.1 318.585C2204.4 328.244 2191.61 335.915 2176.75 341.597C2161.97 347.184 2145.26 349.977 2126.6 349.977C2100.66 349.977 2077.46 344.106 2057 332.364C2036.64 320.621 2020.54 303.623 2008.71 281.369C1996.96 259.116 1991.09 232.174 1991.09 200.545C1991.09 168.822 1997.06 141.833 2008.99 119.58C2020.92 97.3258 2037.12 80.375 2057.57 68.7273C2078.02 56.9848 2101.04 51.1136 2126.6 51.1136C2143.46 51.1136 2159.08 53.4811 2173.48 58.2159C2187.97 62.9508 2200.8 69.8636 2211.97 78.9545C2223.15 87.9507 2232.24 98.9829 2239.25 112.051C2246.35 125.119 2250.89 140.081 2252.88 156.938ZM2358.07 350.119C2344.15 350.119 2331.74 347.705 2320.85 342.875C2309.96 337.951 2301.34 330.706 2295 321.142C2288.75 311.483 2285.62 299.456 2285.62 285.062C2285.62 272.941 2287.85 262.761 2292.3 254.523C2296.75 246.284 2302.81 239.655 2310.48 234.636C2318.15 229.617 2326.86 225.83 2336.62 223.273C2346.47 220.716 2356.79 218.917 2367.58 217.875C2380.27 216.549 2390.5 215.318 2398.27 214.182C2406.03 212.951 2411.67 211.152 2415.17 208.784C2418.67 206.417 2420.42 202.913 2420.42 198.273V197.42C2420.42 188.424 2417.58 181.464 2411.9 176.54C2406.31 171.616 2398.36 169.153 2388.04 169.153C2377.15 169.153 2368.48 171.568 2362.04 176.398C2355.6 181.133 2351.34 187.098 2349.26 194.295L2293.29 189.75C2296.13 176.492 2301.72 165.034 2310.06 155.375C2318.39 145.621 2329.14 138.14 2342.3 132.932C2355.56 127.629 2370.9 124.977 2388.32 124.977C2400.44 124.977 2412.04 126.398 2423.12 129.239C2434.3 132.08 2444.19 136.483 2452.81 142.449C2461.52 148.415 2468.39 156.085 2473.41 165.46C2478.43 174.741 2480.94 185.867 2480.94 198.841V346H2423.55V315.744H2421.85C2418.34 322.562 2413.65 328.576 2407.78 333.784C2401.91 338.898 2394.86 342.922 2386.62 345.858C2378.38 348.699 2368.86 350.119 2358.07 350.119ZM2375.4 308.358C2384.3 308.358 2392.16 306.606 2398.98 303.102C2405.79 299.504 2411.14 294.674 2415.03 288.614C2418.91 282.553 2420.85 275.687 2420.85 268.017V244.864C2418.96 246.095 2416.35 247.231 2413.04 248.273C2409.82 249.22 2406.17 250.119 2402.1 250.972C2398.03 251.729 2393.96 252.439 2389.88 253.102C2385.81 253.67 2382.12 254.191 2378.81 254.665C2371.7 255.706 2365.5 257.364 2360.2 259.636C2354.89 261.909 2350.78 264.987 2347.84 268.869C2344.9 272.657 2343.44 277.392 2343.44 283.074C2343.44 291.312 2346.42 297.61 2352.38 301.966C2358.45 306.227 2366.12 308.358 2375.4 308.358ZM2527.88 346V127.818H2586.55V165.886H2588.82C2592.8 152.345 2599.47 142.117 2608.85 135.205C2618.22 128.197 2629.02 124.693 2641.23 124.693C2644.26 124.693 2647.53 124.883 2651.04 125.261C2654.54 125.64 2657.62 126.161 2660.27 126.824V180.517C2657.43 179.665 2653.5 178.907 2648.48 178.244C2643.46 177.581 2638.87 177.25 2634.7 177.25C2625.8 177.25 2617.84 179.191 2610.84 183.074C2603.92 186.862 2598.43 192.165 2594.36 198.983C2590.38 205.801 2588.39 213.661 2588.39 222.562V346H2527.88ZM2761.8 349.551C2745.22 349.551 2730.21 345.29 2716.77 336.767C2703.41 328.15 2692.81 315.508 2684.95 298.841C2677.18 282.08 2673.3 261.53 2673.3 237.193C2673.3 212.193 2677.33 191.407 2685.38 174.835C2693.42 158.169 2704.13 145.716 2717.48 137.477C2730.92 129.144 2745.65 124.977 2761.65 124.977C2773.87 124.977 2784.05 127.061 2792.19 131.227C2800.43 135.299 2807.06 140.413 2812.08 146.568C2817.19 152.629 2821.08 158.595 2823.73 164.466H2825.57V55.0909H2885.94V346H2826.28V311.057H2823.73C2820.89 317.117 2816.86 323.131 2811.65 329.097C2806.54 334.968 2799.86 339.845 2791.62 343.727C2783.48 347.61 2773.54 349.551 2761.8 349.551ZM2780.97 301.398C2790.73 301.398 2798.96 298.746 2805.69 293.443C2812.51 288.045 2817.71 280.517 2821.31 270.858C2825.01 261.199 2826.85 249.883 2826.85 236.909C2826.85 223.936 2825.05 212.667 2821.45 203.102C2817.86 193.538 2812.65 186.152 2805.83 180.943C2799.01 175.735 2790.73 173.131 2780.97 173.131C2771.03 173.131 2762.65 175.83 2755.83 181.227C2749.01 186.625 2743.85 194.106 2740.35 203.67C2736.84 213.235 2735.09 224.314 2735.09 236.909C2735.09 249.598 2736.84 260.82 2740.35 270.574C2743.95 280.233 2749.11 287.809 2755.83 293.301C2762.65 298.699 2771.03 301.398 2780.97 301.398ZM2971.06 349.693C2961.69 349.693 2953.64 346.379 2946.92 339.75C2940.29 333.027 2936.97 324.977 2936.97 315.602C2936.97 306.322 2940.29 298.367 2946.92 291.739C2953.64 285.11 2961.69 281.795 2971.06 281.795C2980.15 281.795 2988.11 285.11 2994.93 291.739C3001.75 298.367 3005.15 306.322 3005.15 315.602C3005.15 321.852 3003.54 327.581 3000.33 332.79C2997.2 337.903 2993.08 342.023 2987.97 345.148C2982.85 348.178 2977.22 349.693 2971.06 349.693ZM3106.11 346H3040.2L3140.63 55.0909H3219.89L3320.18 346H3254.27L3181.4 121.568H3179.12L3106.11 346ZM3101.99 231.653H3257.68V279.665H3101.99V231.653ZM3416.7 55.0909V346H3355.19V55.0909H3416.7Z" fill="#000"/>
</svg>
